<svg xmlns="http://www.w3.org/2000/svg" width="1000" height="150"  xmlns:xlink="http://www.w3.org/1999/xlink"><g transform="translate(0.5,0.5)" text-anchor="middle" font-size="12" font-family="Hack" font-weight="normal"><line x1="0" y1="20" x2="801" y2="20" stroke="black" stroke-width="1"/><line x1="0" y1="20" x2="0" y2="55" stroke="black" stroke-width="1"/><line x1="0" y1="55" x2="801" y2="55" stroke="black" stroke-width="1"/><line x1="801" y1="20" x2="801" y2="55" stroke="black" stroke-width="1"/><line x1="0" y1="80" x2="801" y2="80" stroke="black" stroke-width="1"/><line x1="0" y1="80" x2="0" y2="115" stroke="black" stroke-width="1"/><line x1="0" y1="115" x2="801" y2="115" stroke="black" stroke-width="1"/><line x1="801" y1="80" x2="801" y2="115" stroke="black" stroke-width="1"/><line x1="751" y1="80" x2="751" y2="115" stroke="black" stroke-width="1"/><line x1="701" y1="80" x2="701" y2="85" stroke="black" stroke-width="1"/><line x1="701" y1="115" x2="701" y2="110" stroke="black" stroke-width="1"/><line x1="651" y1="80" x2="651" y2="85" stroke="black" stroke-width="1"/><line x1="651" y1="115" x2="651" y2="110" stroke="black" stroke-width="1"/><line x1="601" y1="80" x2="601" y2="85" stroke="black" stroke-width="1"/><line x1="601" y1="115" x2="601" y2="110" stroke="black" stroke-width="1"/><line x1="551" y1="80" x2="551" y2="85" stroke="black" stroke-width="1"/><line x1="551" y1="115" x2="551" y2="110" stroke="black" stroke-width="1"/><line x1="501" y1="80" x2="501" y2="85" stroke="black" stroke-width="1"/><line x1="501" y1="115" x2="501" y2="110" stroke="black" stroke-width="1"/><line x1="451" y1="80" x2="451" y2="85" stroke="black" stroke-width="1"/><line x1="451" y1="115" x2="451" y2="110" stroke="black" stroke-width="1"/><line x1="401" y1="80" x2="401" y2="115" stroke="black" stroke-width="1"/><line x1="351" y1="80" x2="351" y2="115" stroke="black" stroke-width="1"/><line x1="301" y1="80" x2="301" y2="85" stroke="black" stroke-width="1"/><line x1="301" y1="115" x2="301" y2="110" stroke="black" stroke-width="1"/><line x1="251" y1="80" x2="251" y2="85" stroke="black" stroke-width="1"/><line x1="251" y1="115" x2="251" y2="110" stroke="black" stroke-width="1"/><line x1="201" y1="80" x2="201" y2="85" stroke="black" stroke-width="1"/><line x1="201" y1="115" x2="201" y2="110" stroke="black" stroke-width="1"/><line x1="151" y1="80" x2="151" y2="85" stroke="black" stroke-width="1"/><line x1="151" y1="115" x2="151" y2="110" stroke="black" stroke-width="1"/><line x1="101" y1="80" x2="101" y2="85" stroke="black" stroke-width="1"/><line x1="101" y1="115" x2="101" y2="110" stroke="black" stroke-width="1"/><line x1="51" y1="80" x2="51" y2="85" stroke="black" stroke-width="1"/><line x1="51" y1="115" x2="51" y2="110" stroke="black" stroke-width="1"/><line x1="751" y1="20" x2="751" y2="55" stroke="black" stroke-width="1"/><line x1="701" y1="20" x2="701" y2="25" stroke="black" stroke-width="1"/><line x1="701" y1="55" x2="701" y2="50" stroke="black" stroke-width="1"/><line x1="651" y1="20" x2="651" y2="25" stroke="black" stroke-width="1"/><line x1="651" y1="55" x2="651" y2="50" stroke="black" stroke-width="1"/><line x1="601" y1="20" x2="601" y2="25" stroke="black" stroke-width="1"/><line x1="601" y1="55" x2="601" y2="50" stroke="black" stroke-width="1"/><line x1="551" y1="20" x2="551" y2="25" stroke="black" stroke-width="1"/><line x1="551" y1="55" x2="551" y2="50" stroke="black" stroke-width="1"/><line x1="501" y1="20" x2="501" y2="25" stroke="black" stroke-width="1"/><line x1="501" y1="55" x2="501" y2="50" stroke="black" stroke-width="1"/><line x1="451" y1="20" x2="451" y2="25" stroke="black" stroke-width="1"/><line x1="451" y1="55" x2="451" y2="50" stroke="black" stroke-width="1"/><line x1="401" y1="20" x2="401" y2="55" stroke="black" stroke-width="1"/><line x1="351" y1="20" x2="351" y2="55" stroke="black" stroke-width="1"/><line x1="301" y1="20" x2="301" y2="25" stroke="black" stroke-width="1"/><line x1="301" y1="55" x2="301" y2="50" stroke="black" stroke-width="1"/><line x1="251" y1="20" x2="251" y2="25" stroke="black" stroke-width="1"/><line x1="251" y1="55" x2="251" y2="50" stroke="black" stroke-width="1"/><line x1="201" y1="20" x2="201" y2="25" stroke="black" stroke-width="1"/><line x1="201" y1="55" x2="201" y2="50" stroke="black" stroke-width="1"/><line x1="151" y1="20" x2="151" y2="25" stroke="black" stroke-width="1"/><line x1="151" y1="55" x2="151" y2="50" stroke="black" stroke-width="1"/><line x1="101" y1="20" x2="101" y2="25" stroke="black" stroke-width="1"/><line x1="101" y1="55" x2="101" y2="50" stroke="black" stroke-width="1"/><line x1="51" y1="20" x2="51" y2="25" stroke="black" stroke-width="1"/><line x1="51" y1="55" x2="51" y2="50" stroke="black" stroke-width="1"/><text x="776" y="100" style="dominant-baseline:middle;text-anchor:middle">GC</text><text x="776" y="123" style="dominant-baseline:middle;text-anchor:middle">rw</text><text x="776" y="78" style="text-anchor:middle">0</text><text x="576" y="100" style="dominant-baseline:middle;text-anchor:middle">ADR0</text><text x="576" y="123" style="dominant-baseline:middle;text-anchor:middle">rw</text><text x="426" y="78" style="text-anchor:middle">7</text><text x="726" y="78" style="text-anchor:middle">1</text><text x="376" y="100" style="dominant-baseline:middle;text-anchor:middle">EN1</text><text x="376" y="123" style="dominant-baseline:middle;text-anchor:middle">rw</text><text x="376" y="78" style="text-anchor:middle">8</text><text x="176" y="100" style="dominant-baseline:middle;text-anchor:middle">ADR1</text><text x="176" y="123" style="dominant-baseline:middle;text-anchor:middle">rw</text><text x="26" y="78" style="text-anchor:middle">15</text><text x="326" y="78" style="text-anchor:middle">9</text><text x="776" y="40" style="dominant-baseline:middle;text-anchor:middle">EN2</text><text x="776" y="63" style="dominant-baseline:middle;text-anchor:middle">rw</text><text x="776" y="18" style="text-anchor:middle">16</text><text x="576" y="40" style="dominant-baseline:middle;text-anchor:middle">ADR2</text><text x="576" y="63" style="dominant-baseline:middle;text-anchor:middle">rw</text><text x="426" y="18" style="text-anchor:middle">23</text><text x="726" y="18" style="text-anchor:middle">17</text><text x="376" y="40" style="dominant-baseline:middle;text-anchor:middle">EN3</text><text x="376" y="63" style="dominant-baseline:middle;text-anchor:middle">rw</text><text x="376" y="18" style="text-anchor:middle">24</text><text x="176" y="40" style="dominant-baseline:middle;text-anchor:middle">ADR3</text><text x="176" y="63" style="dominant-baseline:middle;text-anchor:middle">rw</text><text x="26" y="18" style="text-anchor:middle">31</text><text x="326" y="18" style="text-anchor:middle">25</text><rect x="751" y="80" width="50" height="35" style="fill-opacity:0.1;fill:hsl(215,100%,50%)" /><rect x="401" y="80" width="350" height="35" style="fill-opacity:0.1;fill:hsl(215,100%,50%)" /><rect x="351" y="80" width="50" height="35" style="fill-opacity:0.1;fill:hsl(215,100%,50%)" /><rect x="1" y="80" width="350" height="35" style="fill-opacity:0.1;fill:hsl(215,100%,50%)" /><rect x="751" y="20" width="50" height="35" style="fill-opacity:0.1;fill:hsl(215,100%,50%)" /><rect x="401" y="20" width="350" height="35" style="fill-opacity:0.1;fill:hsl(215,100%,50%)" /><rect x="351" y="20" width="50" height="35" style="fill-opacity:0.1;fill:hsl(215,100%,50%)" /><rect x="1" y="20" width="350" height="35" style="fill-opacity:0.1;fill:hsl(215,100%,50%)" /></g></svg>